<svg width="56" height="56" viewBox="0 0 56 56" fill="none" xmlns="http://www.w3.org/2000/svg">
<path d="M25.6665 30.3333H18.6665V37.3333H23.3332" stroke="#323232" stroke-width="1.5" stroke-linecap="round" stroke-linejoin="round"/>
<path d="M7 46.6668L23.3333 46.6665" stroke="#323232" stroke-width="1.5" stroke-linecap="round" stroke-linejoin="round"/>
<path d="M9.84684 46.6667V23.3032" stroke="#323232" stroke-width="1.5" stroke-linecap="round" stroke-linejoin="round"/>
<path fill-rule="evenodd" clip-rule="evenodd" d="M50.69 15.1146C51.3786 16.4115 51.5155 17.9311 51.0697 19.3302C50.2986 21.7573 48.0209 23.3865 45.4748 23.3321C42.9288 23.2776 40.7228 21.5526 40.0561 19.0947C40.0139 18.9519 39.8827 18.854 39.7338 18.854C39.585 18.854 39.4538 18.9519 39.4116 19.0947C38.7308 21.5964 36.4591 23.3323 33.8665 23.332C31.2738 23.3317 29.0025 21.5953 28.3223 19.0935C28.2801 18.9507 28.1489 18.8527 28 18.8527C27.8511 18.8527 27.72 18.9507 27.6778 19.0935C26.9972 21.5953 24.7256 23.3315 22.1329 23.3314C19.5402 23.3313 17.2687 21.595 16.5883 19.0931C16.546 18.9504 16.4149 18.8525 16.266 18.8525C16.1171 18.8525 15.986 18.9504 15.9437 19.0931C15.277 21.5507 13.0712 23.2756 10.5253 23.3301C7.97949 23.3846 5.70188 21.7558 4.93056 19.329C4.48456 17.9297 4.62144 16.4097 5.31024 15.1126L9.29258 7.22926C10.0865 5.65771 11.6973 4.66675 13.458 4.66675H42.5414C44.302 4.66676 45.9128 5.65771 46.7067 7.22926L50.69 15.1146Z" stroke="#323232" stroke-width="1.5" stroke-linecap="round" stroke-linejoin="round"/>
<path d="M43.1667 38.3833C43.1022 38.3833 43.05 38.4355 43.05 38.4999C43.05 38.5644 43.1022 38.6166 43.1667 38.6166C43.2311 38.6166 43.2833 38.5644 43.2833 38.4999C43.2833 38.4355 43.2311 38.3833 43.1667 38.3833V38.3833" stroke="#323232" stroke-width="1.5" stroke-linecap="round" stroke-linejoin="round"/>
<path d="M35.4612 41.1016L31.0152 45.5566C30.5787 45.994 30.3335 46.5868 30.3335 47.2047V48.9999C30.3335 50.2886 31.3782 51.3332 32.6668 51.3332H34.4662C35.0858 51.3332 35.6801 51.0867 36.1178 50.6481L40.5567 46.2001" stroke="#323232" stroke-width="1.5" stroke-linecap="round" stroke-linejoin="round"/>
<path d="M35.4631 41.1035C35.1669 40.267 35.0104 39.3873 35 38.4999C35 35.1968 36.9897 32.2189 40.0414 30.9549C43.0931 29.6909 46.6057 30.3896 48.9414 32.7252C51.277 35.0609 51.9757 38.5735 50.7117 41.6252C49.4476 44.6768 46.4698 46.6666 43.1667 46.6666C42.2776 46.6562 41.3963 46.4992 40.5583 46.2019" stroke="#323232" stroke-width="1.5" stroke-linecap="round" stroke-linejoin="round"/>
</svg>
