<svg width="56" height="56" viewBox="0 0 56 56" fill="none" xmlns="http://www.w3.org/2000/svg">
<path d="M25.6657 48.7985H6.99121" stroke="#323232" stroke-width="1.5" stroke-linecap="round" stroke-linejoin="round"/>
<path d="M9.83903 25.1521V48.7986" stroke="#323232" stroke-width="1.5" stroke-linecap="round" stroke-linejoin="round"/>
<path fill-rule="evenodd" clip-rule="evenodd" d="M45.974 25.1473C47.7678 25.2139 49.4663 24.339 50.4535 22.8397C51.4407 21.3405 51.5735 19.4346 50.8036 17.8129L46.7956 9.92999C45.8327 8.10178 43.9271 6.96685 41.8609 6.9911H14.1387C12.0722 6.96758 10.1661 8.10218 9.20165 9.92999L5.19598 17.8129C4.42612 19.4346 4.55887 21.3405 5.54612 22.8397C6.53337 24.339 8.23179 25.2139 10.0257 25.1473C13.0669 25.3849 15.735 23.1358 16.0155 20.0982V19.9862C16.2615 23.0568 18.9321 25.3579 22.0053 25.1473C25.0803 25.3606 27.7539 23.0587 27.9998 19.9862C28.2458 23.0568 30.9164 25.3579 33.9896 25.1473C37.0629 25.3579 39.7335 23.0568 39.9795 19.9862V20.0982C40.2623 23.1365 42.9318 25.385 45.974 25.1473V25.1473Z" stroke="#323232" stroke-width="1.5" stroke-linecap="round" stroke-linejoin="round"/>
<path d="M46.6744 30.3343L46.7117 25.1521" stroke="#323232" stroke-width="1.5" stroke-linecap="round" stroke-linejoin="round"/>
<path d="M49.0086 41.5155L46.5109 39.0178L44.0132 41.5155" stroke="#323232" stroke-width="1.5" stroke-linecap="round" stroke-linejoin="round"/>
<path d="M46.5112 39.0178V45.6776C46.5061 47.5179 45.0135 49.0074 43.1732 49.0087H37.3374" stroke="#323232" stroke-width="1.5" stroke-linecap="round" stroke-linejoin="round"/>
<path d="M30.3345 42.4961L32.8322 44.9938L35.3299 42.4961" stroke="#323232" stroke-width="1.5" stroke-linecap="round" stroke-linejoin="round"/>
<path d="M32.832 44.9938V38.334C32.8314 37.4492 33.1831 36.6005 33.8095 35.9754C34.4358 35.3504 35.2852 35.0005 36.1701 35.0029H42.0059" stroke="#323232" stroke-width="1.5" stroke-linecap="round" stroke-linejoin="round"/>
</svg>
