<svg width="55" height="55" viewBox="0 0 55 55" fill="none" xmlns="http://www.w3.org/2000/svg">
<path d="M41.2498 34.375V36.6667" stroke="#323232" stroke-width="1.5" stroke-linecap="round" stroke-linejoin="round"/>
<path d="M41.2498 45.8333V48.1249" stroke="#323232" stroke-width="1.5" stroke-linecap="round" stroke-linejoin="round"/>
<path d="M35.2918 37.8124L37.3543 38.9583" stroke="#323232" stroke-width="1.5" stroke-linecap="round" stroke-linejoin="round"/>
<path d="M45.1458 43.5417L47.2083 44.6875" stroke="#323232" stroke-width="1.5" stroke-linecap="round" stroke-linejoin="round"/>
<path d="M35.2918 44.6875L37.3543 43.5417" stroke="#323232" stroke-width="1.5" stroke-linecap="round" stroke-linejoin="round"/>
<path d="M45.1458 38.9583L47.2083 37.8124" stroke="#323232" stroke-width="1.5" stroke-linecap="round" stroke-linejoin="round"/>
<path d="M44.4582 38.0417C46.2915 39.8751 46.2915 42.6251 44.4582 44.4584C42.6248 46.2917 39.8748 46.2917 38.0415 44.4584C36.2082 42.6251 36.2082 39.8751 38.0415 38.0417C39.8748 36.2084 42.6248 36.2084 44.4582 38.0417" stroke="#323232" stroke-width="1.5" stroke-linecap="round" stroke-linejoin="round"/>
<path d="M34.3752 11.9167C38.271 15.8126 38.271 22.0001 34.3752 25.6667C30.4793 29.3334 24.2918 29.5626 20.6252 25.6667C16.9585 21.7709 16.7293 15.5834 20.6252 11.9167C24.521 8.25008 30.4793 8.25008 34.3752 11.9167" stroke="#323232" stroke-width="1.5" stroke-linecap="round" stroke-linejoin="round"/>
<path d="M9.1665 45.8333C9.1665 40.1041 13.7498 35.5208 19.479 35.5208H25.4373" stroke="#323232" stroke-width="1.5" stroke-linecap="round" stroke-linejoin="round"/>
</svg>
