<svg width="56" height="56" viewBox="0 0 56 56" fill="none" xmlns="http://www.w3.org/2000/svg">
<path fill-rule="evenodd" clip-rule="evenodd" d="M42.0058 49.0086H13.9942C12.7559 49.009 11.5682 48.5172 10.6926 47.6416C9.81698 46.766 9.32556 45.5783 9.32556 44.34V19.8298C9.32627 17.8963 10.8935 16.3291 12.827 16.3284H43.173C45.1065 16.3291 46.6737 17.8963 46.6744 19.8298V44.34C46.6744 45.5783 46.183 46.766 45.3074 47.6416C44.4318 48.5172 43.2441 49.009 42.0058 49.0086Z" stroke="#323232" stroke-width="1.5" stroke-linecap="round" stroke-linejoin="round"/>
<path d="M18.6627 16.3284V15.7449V15.7449C18.6627 10.9104 22.5819 6.99133 27.4164 6.99121H28.5835C33.418 6.99133 37.3372 10.9104 37.3372 15.7449V15.7449V16.3284" stroke="#323232" stroke-width="1.5" stroke-linecap="round" stroke-linejoin="round"/>
<path d="M30.9178 30.2087L25.082 36.0445" stroke="#323232" stroke-width="1.5" stroke-linecap="round" stroke-linejoin="round"/>
<path d="M25.082 30.2087L30.9178 36.0445" stroke="#323232" stroke-width="1.5" stroke-linecap="round" stroke-linejoin="round"/>
</svg>
