<svg width="56" height="56" viewBox="0 0 44 44" fill="none" xmlns="http://www.w3.org/2000/svg">
<path fill-rule="evenodd" clip-rule="evenodd" d="M5.5 20.7003C5.5 25.6191 8.10333 29.9495 12.0982 32.6793C12.0963 34.2468 12.1 36.3588 12.1 38.5753L18.5735 35.3725C19.6808 35.5851 20.8248 35.7006 22 35.7006C31.0787 35.7006 38.5 29.0218 38.5 20.7003C38.5 12.3788 31.0787 5.69995 22 5.69995C12.9213 5.69995 5.5 12.3788 5.5 20.7003Z" stroke="#323232" stroke-width="1.5" stroke-linecap="round" stroke-linejoin="round"/>
<path d="M21.8149 22.6014V22.2219C21.8149 20.9789 22.5831 20.3061 23.3531 19.7891C24.1048 19.2831 24.8583 18.6231 24.8583 17.4058C24.8583 15.7246 23.4961 14.3643 21.8168 14.3643C20.1374 14.3643 18.7734 15.7228 18.7734 17.4039" stroke="#323232" stroke-width="1.5" stroke-linecap="round" stroke-linejoin="round"/>
<path d="M21.8128 26.8896C21.6606 26.8896 21.5378 27.0124 21.5396 27.1646C21.5396 27.3168 21.6625 27.4396 21.8146 27.4396C21.9668 27.4396 22.0896 27.3168 22.0896 27.1646C22.0896 27.0124 21.9686 26.8896 21.8128 26.8896" stroke="#323232" stroke-width="1.5" stroke-linecap="round" stroke-linejoin="round"/>
</svg>
