<svg width="50" height="50" viewBox="0 0 50 50" fill="none" xmlns="http://www.w3.org/2000/svg">
<path d="M25.0002 12.5V15.625" stroke="#323232" stroke-width="1.5" stroke-linecap="round" stroke-linejoin="round"/>
<path d="M38.2585 11.7417C45.5808 19.0641 45.5808 30.9359 38.2585 38.2582C30.9361 45.5805 19.0643 45.5805 11.742 38.2582C4.41966 30.9359 4.41966 19.064 11.742 11.7417C19.0643 4.41942 30.9362 4.41942 38.2585 11.7417" stroke="#323232" stroke-width="1.5" stroke-linecap="round" stroke-linejoin="round"/>
<path d="M25.0002 37.5V34.375" stroke="#323232" stroke-width="1.5" stroke-linecap="round" stroke-linejoin="round"/>
<path d="M18.75 29.6979V29.6979C18.75 32.2875 20.8479 34.3854 23.4375 34.3854H26.8604C29.2833 34.3854 31.25 32.4208 31.25 29.9958V29.9958C31.25 27.9833 29.8812 26.2292 27.9292 25.7396L22.0708 24.2708C20.1187 23.7812 18.75 22.0271 18.75 20.0146V20.0146C18.75 17.5896 20.7146 15.625 23.1396 15.625H26.5625C29.1521 15.625 31.25 17.7229 31.25 20.3125V20.3125" stroke="#323232" stroke-width="1.5" stroke-linecap="round" stroke-linejoin="round"/>
</svg>
