<svg width="33" height="33" viewBox="0 0 33 33" fill="none" xmlns="http://www.w3.org/2000/svg">
<path d="M16.4999 0.900024C20.6373 0.900024 24.6052 2.54359 27.5308 5.46916C30.4563 8.39473 32.0999 12.3626 32.0999 16.5C32.0999 20.6374 30.4563 24.6053 27.5308 27.5309C24.6052 30.4565 20.6373 32.1 16.4999 32.1C12.3625 32.1 8.3946 30.4565 5.46904 27.5309C2.54347 24.6053 0.899902 20.6374 0.899902 16.5C0.899902 12.3626 2.54347 8.39473 5.46904 5.46916C8.3946 2.54359 12.3625 0.900024 16.4999 0.900024ZM16.4999 2.85002C14.7074 2.85002 12.9324 3.20309 11.2763 3.88907C9.62018 4.57505 8.11541 5.5805 6.84789 6.84802C5.58038 8.11554 4.57492 9.6203 3.88895 11.2764C3.20297 12.9325 2.8499 14.7075 2.8499 16.5C2.8499 18.2926 3.20297 20.0676 3.88895 21.7237C4.57492 23.3797 5.58038 24.8845 6.84789 26.152C8.11541 27.4196 9.62018 28.425 11.2763 29.111C12.9324 29.797 14.7074 30.15 16.4999 30.15C20.1201 30.15 23.592 28.7119 26.1519 26.152C28.7118 23.5922 30.1499 20.1202 30.1499 16.5C30.1499 12.8798 28.7118 9.40789 26.1519 6.84802C23.592 4.28815 20.1201 2.85002 16.4999 2.85002ZM16.4999 21.375C16.8878 21.375 17.2598 21.5291 17.534 21.8034C17.8083 22.0777 17.9624 22.4496 17.9624 22.8375C17.9624 23.2254 17.8083 23.5974 17.534 23.8717C17.2598 24.1459 16.8878 24.3 16.4999 24.3C16.112 24.3 15.74 24.1459 15.4658 23.8717C15.1915 23.5974 15.0374 23.2254 15.0374 22.8375C15.0374 22.4496 15.1915 22.0777 15.4658 21.8034C15.74 21.5291 16.112 21.375 16.4999 21.375ZM16.4999 8.70002C16.7281 8.69995 16.9491 8.77992 17.1244 8.92601C17.2997 9.0721 17.4182 9.27505 17.4593 9.49952L17.4749 9.67502V18.45C17.4754 18.6937 17.3846 18.9287 17.2204 19.1087C17.0563 19.2887 16.8306 19.4008 16.588 19.4228C16.3454 19.4448 16.1033 19.3752 15.9094 19.2276C15.7155 19.0801 15.5839 18.8653 15.5405 18.6255L15.5249 18.45V9.67502C15.5249 9.41644 15.6276 9.16844 15.8105 8.9856C15.9933 8.80275 16.2413 8.70002 16.4999 8.70002Z" fill="black"/>
</svg>
