<svg width="46" height="46" viewBox="0 0 46 46" fill="none" xmlns="http://www.w3.org/2000/svg">
<path d="M23.8993 5.79371C26.5131 8.40748 26.5131 12.6453 23.8993 15.259C21.2855 17.8728 17.0477 17.8728 14.434 15.259C11.8202 12.6453 11.8202 8.40748 14.434 5.79371C17.0477 3.17993 21.2855 3.17993 23.8993 5.79371" stroke="#323232" stroke-width="1.5" stroke-linecap="round" stroke-linejoin="round"/>
<path d="M27.5291 24.5257C25.0393 23.531 22.1183 22.9828 19.1666 22.9828C11.408 22.9828 3.83331 26.7529 3.83331 32.5508V34.4675C3.83331 35.5255 4.69198 36.3841 5.74998 36.3841H23.7916" stroke="#323232" stroke-width="1.5" stroke-linecap="round" stroke-linejoin="round"/>
<path d="M32.5833 42.1667C27.2914 42.1667 23 37.8772 23 32.5833C23 27.4007 27.4083 22.9943 32.591 23C37.881 23.0038 42.1667 27.2933 42.1667 32.5833C42.1667 37.8753 37.8772 42.1667 32.5833 42.1667" stroke="#323232" stroke-width="1.5" stroke-linecap="round" stroke-linejoin="round"/>
<path d="M35.2858 29.8809L29.8808 35.2859" stroke="#323232" stroke-width="1.5" stroke-linecap="round" stroke-linejoin="round"/>
<path d="M35.2858 35.2859L29.8808 29.8809" stroke="#323232" stroke-width="1.5" stroke-linecap="round" stroke-linejoin="round"/>
</svg>
