<svg width="46" height="46" viewBox="0 0 46 46" fill="none" xmlns="http://www.w3.org/2000/svg">
<path d="M23.8993 5.79358C26.5131 8.40736 26.5131 12.6451 23.8993 15.2589C21.2855 17.8727 17.0477 17.8727 14.434 15.2589C11.8202 12.6451 11.8202 8.40736 14.434 5.79358C17.0477 3.17981 21.2855 3.17981 23.8993 5.79358" stroke="#323232" stroke-width="1.5" stroke-linecap="round" stroke-linejoin="round"/>
<path d="M27.529 24.5256C25.0393 23.5308 22.1183 22.9827 19.1666 22.9827C11.4079 22.9827 3.83325 26.7527 3.83325 32.5507V34.4673C3.83325 35.5253 4.69192 36.384 5.74992 36.384H23.7915" stroke="#323232" stroke-width="1.5" stroke-linecap="round" stroke-linejoin="round"/>
<path d="M32.5833 42.1667C27.2914 42.1667 23 37.8772 23 32.5833C23 27.4007 27.4083 22.9943 32.591 23C37.881 23.0038 42.1667 27.2933 42.1667 32.5833C42.1667 37.8753 37.8772 42.1667 32.5833 42.1667" stroke="#323232" stroke-width="1.5" stroke-linecap="round" stroke-linejoin="round"/>
<path d="M35.2859 29.8809L29.8809 35.2859" stroke="#323232" stroke-width="1.5" stroke-linecap="round" stroke-linejoin="round"/>
<path d="M35.2859 35.2859L29.8809 29.8809" stroke="#323232" stroke-width="1.5" stroke-linecap="round" stroke-linejoin="round"/>
</svg>
