<svg width="56" height="56" viewBox="0 0 56 56" fill="none" xmlns="http://www.w3.org/2000/svg">
<rect x="6.99121" y="8.83997" width="42.0175" height="37.3489" rx="3.6" stroke="#323232" stroke-width="1.5" stroke-linecap="round" stroke-linejoin="round"/>
<path d="M28.5837 27.5331C28.5837 27.8554 28.3225 28.1167 28.0002 28.1167C27.6779 28.1167 27.4166 27.8554 27.4166 27.5331C27.4166 27.2108 27.6779 26.9495 28.0002 26.9495C28.3225 26.9495 28.5837 27.2108 28.5837 27.5331" stroke="#323232" stroke-width="1.5" stroke-linecap="round" stroke-linejoin="round"/>
<path d="M19.2463 27.5144C19.2463 27.8367 18.9851 28.098 18.6628 28.098C18.3405 28.098 18.0792 27.8367 18.0792 27.5144C18.0792 27.1921 18.3405 26.9309 18.6628 26.9309C18.9851 26.9309 19.2463 27.1921 19.2463 27.5144" stroke="#323232" stroke-width="1.5" stroke-linecap="round" stroke-linejoin="round"/>
<path d="M37.9207 27.4911C37.9207 27.8134 37.6594 28.0747 37.3371 28.0747C37.0148 28.0747 36.7535 27.8134 36.7535 27.4911C36.7535 27.1688 37.0148 26.9076 37.3371 26.9076C37.6594 26.9076 37.9207 27.1688 37.9207 27.4911" stroke="#323232" stroke-width="1.5" stroke-linecap="round" stroke-linejoin="round"/>
</svg>
