<svg width="55" height="55" viewBox="0 0 55 55" fill="none" xmlns="http://www.w3.org/2000/svg">
<path d="M25.2083 34.375H16.0417C10.9791 34.375 6.875 38.4791 6.875 43.5417V45.8333" stroke="#323232" stroke-width="1.5" stroke-linecap="round" stroke-linejoin="round"/>
<circle cx="25.2083" cy="16.0417" r="9.16667" stroke="#323232" stroke-width="1.5" stroke-linecap="round" stroke-linejoin="round"/>
<path d="M50.4167 37.8125C50.4167 42.2423 46.8256 45.8333 42.3958 45.8333C41.5991 45.8221 40.8086 45.691 40.0509 45.4442" stroke="#323232" stroke-width="1.5" stroke-linecap="round" stroke-linejoin="round"/>
<path d="M42.3958 29.7917C46.8256 29.7917 50.4167 33.3828 50.4167 37.8126" stroke="#323232" stroke-width="1.5" stroke-linecap="round" stroke-linejoin="round"/>
<path d="M34.762 40.1508C34.5166 39.3952 34.3862 38.607 34.375 37.8126C34.375 33.3828 37.966 29.7917 42.3958 29.7917" stroke="#323232" stroke-width="1.5" stroke-linecap="round" stroke-linejoin="round"/>
<path d="M34.762 40.1506L30.4156 44.5037C30.017 44.9057 29.7928 45.4486 29.7917 46.0148V48.2789C29.7917 49.4595 30.7487 50.4165 31.9292 50.4166H34.2031C34.7706 50.4172 35.3147 50.1908 35.7142 49.7877L40.0509 45.4441" stroke="#323232" stroke-width="1.5" stroke-linecap="round" stroke-linejoin="round"/>
<path d="M42.5104 37.8127C42.5103 37.876 42.459 37.9272 42.3958 37.9272C42.3325 37.9271 42.2813 37.8759 42.2813 37.8126C42.2812 37.7494 42.3324 37.6981 42.3957 37.698C42.4261 37.698 42.4553 37.71 42.4769 37.7316C42.4984 37.7531 42.5105 37.7823 42.5104 37.8127" stroke="#323232" stroke-width="1.5" stroke-linecap="round" stroke-linejoin="round"/>
</svg>
