<svg width="56" height="56" viewBox="0 0 41 41" fill="none" xmlns="http://www.w3.org/2000/svg">
<path d="M20.4996 11.9546C22.5966 11.9546 24.2971 13.6551 24.2971 15.7521C24.2971 17.8491 22.5966 19.5496 20.4996 19.5496C18.4026 19.5496 16.7021 17.8508 16.7021 15.7521C16.7021 13.6534 18.4026 11.9546 20.4996 11.9546" stroke="#323232" stroke-width="1.5" stroke-linecap="round" stroke-linejoin="round"/>
<path fill-rule="evenodd" clip-rule="evenodd" d="M34.1719 19.2044C34.1719 26.6695 28.7764 33.6664 21.3882 35.7582C20.8106 35.9223 20.1885 35.9223 19.6108 35.7582C12.2226 33.6681 6.82715 26.6695 6.82715 19.2044V12.3204C6.82715 10.9326 7.66629 9.68162 8.95149 9.15694L17.2643 5.75594C19.3391 4.90655 21.6634 4.90655 23.7364 5.75594L32.0492 9.15694C33.3327 9.68162 34.1719 10.9326 34.1719 12.3204V19.2044Z" stroke="#323232" stroke-width="1.5" stroke-linecap="round" stroke-linejoin="round"/>
<path d="M27.3354 25.627C27.1372 25.1263 26.8279 24.6785 26.4331 24.3128V24.3128C25.7648 23.6941 24.8932 23.3489 23.9823 23.3489C22.463 23.3489 18.5373 23.3489 17.0179 23.3489C16.107 23.3489 15.2337 23.6941 14.5655 24.3128V24.3128C14.1707 24.6785 13.863 25.1263 13.6631 25.627" stroke="#323232" stroke-width="1.5" stroke-linecap="round" stroke-linejoin="round"/>
</svg>
