<svg width="33" height="33" viewBox="0 0 33 33" fill="none" xmlns="http://www.w3.org/2000/svg">
<path d="M16.5 0.900024C20.6374 0.900024 24.6053 2.54359 27.5309 5.46916C30.4564 8.39473 32.1 12.3626 32.1 16.5C32.1 20.6374 30.4564 24.6053 27.5309 27.5309C24.6053 30.4565 20.6374 32.1 16.5 32.1C12.3626 32.1 8.3947 30.4565 5.46914 27.5309C2.54357 24.6053 0.900002 20.6374 0.900002 16.5C0.900002 12.3626 2.54357 8.39473 5.46914 5.46916C8.3947 2.54359 12.3626 0.900024 16.5 0.900024V0.900024ZM16.5 2.85002C14.7075 2.85002 12.9325 3.20309 11.2764 3.88907C9.62028 4.57505 8.11551 5.5805 6.84799 6.84802C5.58047 8.11554 4.57502 9.6203 3.88905 11.2764C3.20307 12.9325 2.85 14.7075 2.85 16.5C2.85 18.2926 3.20307 20.0676 3.88905 21.7237C4.57502 23.3797 5.58047 24.8845 6.84799 26.152C8.11551 27.4196 9.62028 28.425 11.2764 29.111C12.9325 29.797 14.7075 30.15 16.5 30.15C20.1202 30.15 23.5921 28.7119 26.152 26.152C28.7119 23.5922 30.15 20.1202 30.15 16.5C30.15 12.8798 28.7119 9.40789 26.152 6.84802C23.5921 4.28815 20.1202 2.85002 16.5 2.85002ZM16.5 21.375C16.8879 21.375 17.2599 21.5291 17.5341 21.8034C17.8084 22.0777 17.9625 22.4496 17.9625 22.8375C17.9625 23.2254 17.8084 23.5974 17.5341 23.8717C17.2599 24.1459 16.8879 24.3 16.5 24.3C16.1121 24.3 15.7401 24.1459 15.4659 23.8717C15.1916 23.5974 15.0375 23.2254 15.0375 22.8375C15.0375 22.4496 15.1916 22.0777 15.4659 21.8034C15.7401 21.5291 16.1121 21.375 16.5 21.375V21.375ZM16.5 8.70002C16.7282 8.69995 16.9492 8.77992 17.1245 8.92601C17.2998 9.0721 17.4183 9.27505 17.4594 9.49952L17.475 9.67502V18.45C17.4755 18.6937 17.3847 18.9287 17.2205 19.1087C17.0564 19.2888 16.8307 19.4008 16.5881 19.4228C16.3455 19.4448 16.1034 19.3752 15.9095 19.2276C15.7156 19.0801 15.584 18.8653 15.5406 18.6255L15.525 18.45V9.67502C15.525 9.41644 15.6277 9.16844 15.8106 8.9856C15.9934 8.80275 16.2414 8.70002 16.5 8.70002Z" fill="black"/>
</svg>
