<svg width="56" height="56" viewBox="0 0 56 56" fill="none" xmlns="http://www.w3.org/2000/svg">
<path d="M25.6665 30.3333H18.6665V37.3333H23.3332" stroke="#323232" stroke-width="1.5" stroke-linecap="round" stroke-linejoin="round"/>
<path d="M7 46.6668L25.6667 46.6666" stroke="#323232" stroke-width="1.5" stroke-linecap="round" stroke-linejoin="round"/>
<path d="M9.84684 46.6667V23.3032" stroke="#323232" stroke-width="1.5" stroke-linecap="round" stroke-linejoin="round"/>
<path fill-rule="evenodd" clip-rule="evenodd" d="M50.69 15.1146C51.3786 16.4115 51.5155 17.9311 51.0697 19.3302C50.2986 21.7573 48.0209 23.3865 45.4748 23.3321C42.9288 23.2776 40.7228 21.5526 40.0561 19.0947C40.0139 18.9519 39.8827 18.854 39.7338 18.854C39.585 18.854 39.4538 18.9519 39.4116 19.0947C38.7308 21.5964 36.4591 23.3323 33.8665 23.332C31.2738 23.3317 29.0025 21.5953 28.3223 19.0935C28.2801 18.9507 28.1489 18.8527 28 18.8527C27.8511 18.8527 27.72 18.9507 27.6778 19.0935C26.9972 21.5953 24.7256 23.3315 22.1329 23.3314C19.5402 23.3313 17.2687 21.595 16.5883 19.0931C16.546 18.9504 16.4149 18.8525 16.266 18.8525C16.1171 18.8525 15.986 18.9504 15.9437 19.0931C15.277 21.5507 13.0712 23.2756 10.5253 23.3301C7.97949 23.3846 5.70188 21.7558 4.93056 19.329C4.48456 17.9297 4.62144 16.4097 5.31024 15.1126L9.29258 7.22926C10.0865 5.65771 11.6973 4.66675 13.458 4.66675H42.5414C44.302 4.66676 45.9128 5.65771 46.7067 7.22926L50.69 15.1146Z" stroke="#323232" stroke-width="1.5" stroke-linecap="round" stroke-linejoin="round"/>
<path fill-rule="evenodd" clip-rule="evenodd" d="M32.6665 50.1666V49.2193C32.6742 46.524 34.8572 44.3409 37.5525 44.3333H44.1138C46.8091 44.3409 48.9921 46.524 48.9998 49.2193V50.1666C48.9998 50.8109 48.4775 51.3333 47.8332 51.3333H33.8332C33.5238 51.3333 33.227 51.2103 33.0082 50.9915C32.7894 50.7728 32.6665 50.476 32.6665 50.1666Z" stroke="#323232" stroke-width="1.5" stroke-linecap="round" stroke-linejoin="round"/>
<circle cx="40.8332" cy="33.8334" r="4.66667" stroke="#323232" stroke-width="1.5" stroke-linecap="round" stroke-linejoin="round"/>
</svg>
