<svg width="56" height="56" viewBox="0 0 56 56" fill="none" xmlns="http://www.w3.org/2000/svg">
<path d="M7 46.6667H28" stroke="#323232" stroke-width="1.5" stroke-linecap="round" stroke-linejoin="round"/>
<path d="M9.33354 46.6665L9.33378 23.304" stroke="#323232" stroke-width="1.5" stroke-linecap="round" stroke-linejoin="round"/>
<path fill-rule="evenodd" clip-rule="evenodd" d="M50.69 15.1146C51.3786 16.4115 51.5155 17.9311 51.0697 19.3302C50.2986 21.7573 48.0209 23.3865 45.4748 23.3321C42.9288 23.2776 40.7228 21.5526 40.0561 19.0947C40.0139 18.9519 39.8827 18.854 39.7338 18.854C39.585 18.854 39.4538 18.9519 39.4116 19.0947C38.7308 21.5964 36.4591 23.3323 33.8665 23.332C31.2738 23.3317 29.0025 21.5953 28.3223 19.0935C28.2801 18.9507 28.1489 18.8527 28 18.8527C27.8511 18.8527 27.72 18.9507 27.6778 19.0935C26.9972 21.5953 24.7256 23.3315 22.1329 23.3314C19.5402 23.3313 17.2687 21.595 16.5883 19.0931C16.546 18.9504 16.4149 18.8525 16.266 18.8525C16.1171 18.8525 15.986 18.9504 15.9437 19.0931C15.277 21.5507 13.0712 23.2756 10.5253 23.3301C7.97949 23.3846 5.70188 21.7558 4.93056 19.329C4.48456 17.9297 4.62144 16.4097 5.31024 15.1126L9.29258 7.22926C10.0865 5.65771 11.6973 4.66675 13.458 4.66675H42.5414C44.302 4.66676 45.9128 5.65771 46.7067 7.22926L50.69 15.1146Z" stroke="#323232" stroke-width="1.5" stroke-linecap="round" stroke-linejoin="round"/>
<path d="M35 38.5C35 42.3232 39.172 46.4072 41.552 48.4268C42.4919 49.1911 43.8391 49.1911 44.779 48.4268C47.1613 46.4072 51.3333 42.3232 51.3333 38.5" stroke="#323232" stroke-width="1.5" stroke-linecap="round" stroke-linejoin="round"/>
<path d="M43.1671 38.3833C43.2315 38.3835 43.2835 38.4358 43.2833 38.5002C43.2832 38.5646 43.2309 38.6167 43.1665 38.6166C43.1021 38.6165 43.05 38.5643 43.05 38.4999C43.0498 38.4689 43.0621 38.439 43.0841 38.4171C43.1062 38.3952 43.136 38.383 43.1671 38.3833" stroke="#323232" stroke-width="1.5" stroke-linecap="round" stroke-linejoin="round"/>
<path d="M35 38.4999V38.4999C35 33.9896 38.6563 30.3333 43.1667 30.3333V30.3333C47.677 30.3333 51.3333 33.9896 51.3333 38.4999V38.4999" stroke="#323232" stroke-width="1.5" stroke-linecap="round" stroke-linejoin="round"/>
<path d="M25.6665 30.3333H18.6665V37.3333H23.3332" stroke="#323232" stroke-width="1.5" stroke-linecap="round" stroke-linejoin="round"/>
</svg>
