<svg width="56" height="56" viewBox="0 0 56 56" fill="none" xmlns="http://www.w3.org/2000/svg">
<path fill-rule="evenodd" clip-rule="evenodd" d="M46.6665 49H9.33317C6.75484 49 4.6665 46.9117 4.6665 44.3333V11.6667C4.6665 9.08833 6.75484 7 9.33317 7H46.6665C49.2448 7 51.3332 9.08833 51.3332 11.6667V44.3333C51.3332 46.9117 49.2448 49 46.6665 49Z" stroke="#323232" stroke-width="1.5" stroke-linecap="round" stroke-linejoin="round"/>
<path d="M4.6665 18.6667H51.3332" stroke="#323232" stroke-width="1.5" stroke-linecap="round" stroke-linejoin="round"/>
<path d="M11.151 12.81C11.144 12.81 11.1394 12.8147 11.1394 12.8217C11.1394 12.8287 11.144 12.8334 11.151 12.8334C11.158 12.8334 11.1627 12.8287 11.1627 12.8217C11.1627 12.8147 11.158 12.81 11.151 12.81" stroke="#323232" stroke-width="1.5" stroke-linecap="round" stroke-linejoin="round"/>
<path d="M17.0846 12.81C17.0776 12.81 17.073 12.8147 17.073 12.8217C17.073 12.8287 17.08 12.8334 17.0846 12.8334C17.0916 12.8334 17.0963 12.8287 17.0963 12.8217C17.0963 12.8147 17.0916 12.81 17.0846 12.81" stroke="#323232" stroke-width="1.5" stroke-linecap="round" stroke-linejoin="round"/>
<path d="M23.009 12.81C23.002 12.81 22.9973 12.8147 22.9973 12.8217C22.9973 12.8287 23.002 12.8334 23.009 12.8334C23.016 12.8334 23.0206 12.8287 23.0206 12.8217C23.0206 12.8147 23.016 12.81 23.009 12.81" stroke="#323232" stroke-width="1.5" stroke-linecap="round" stroke-linejoin="round"/>
<path d="M29.8197 25.6667L26.1797 42.0001" stroke="#323232" stroke-width="1.5" stroke-linecap="round" stroke-linejoin="round"/>
<path d="M35.583 29.75L39.6663 33.8333L35.583 37.9167" stroke="#323232" stroke-width="1.5" stroke-linecap="round" stroke-linejoin="round"/>
<path d="M20.4163 37.9167L16.333 33.8333L20.4163 29.75" stroke="#323232" stroke-width="1.5" stroke-linecap="round" stroke-linejoin="round"/>
</svg>
