<svg width="56" height="56" viewBox="0 0 46 46" fill="none" xmlns="http://www.w3.org/2000/svg">
<path fill-rule="evenodd" clip-rule="evenodd" d="M28.7523 36.4223H17.2475C13.0167 36.4099 9.59002 32.9832 9.57764 28.7524V17.2476C9.59002 13.0168 13.0167 9.59014 17.2475 9.57776H28.7523C32.9831 9.59014 36.4098 13.0168 36.4222 17.2476V28.7524C36.4098 32.9832 32.9831 36.4099 28.7523 36.4223Z" stroke="#323232" stroke-width="1.5" stroke-linecap="round" stroke-linejoin="round"/>
<path d="M25.655 9.57785V5.74292" stroke="#323232" stroke-width="1.5" stroke-linecap="round" stroke-linejoin="round"/>
<path d="M30.9646 9.90606V5.74292" stroke="#323232" stroke-width="1.5" stroke-linecap="round" stroke-linejoin="round"/>
<path d="M15.0349 9.90537V5.74292" stroke="#323232" stroke-width="1.5" stroke-linecap="round" stroke-linejoin="round"/>
<path d="M20.3455 9.57785V5.74292" stroke="#323232" stroke-width="1.5" stroke-linecap="round" stroke-linejoin="round"/>
<path d="M25.655 40.2573V36.4224" stroke="#323232" stroke-width="1.5" stroke-linecap="round" stroke-linejoin="round"/>
<path d="M30.9646 40.2573V36.0936" stroke="#323232" stroke-width="1.5" stroke-linecap="round" stroke-linejoin="round"/>
<path d="M15.0349 40.2573V36.0939" stroke="#323232" stroke-width="1.5" stroke-linecap="round" stroke-linejoin="round"/>
<path d="M20.3455 40.2573V36.4224" stroke="#323232" stroke-width="1.5" stroke-linecap="round" stroke-linejoin="round"/>
<path d="M36.4219 25.6554H40.2568" stroke="#323232" stroke-width="1.5" stroke-linecap="round" stroke-linejoin="round"/>
<path d="M36.0938 30.965H40.2569" stroke="#323232" stroke-width="1.5" stroke-linecap="round" stroke-linejoin="round"/>
<path d="M36.0947 15.0351H40.2572" stroke="#323232" stroke-width="1.5" stroke-linecap="round" stroke-linejoin="round"/>
<path d="M36.4219 20.3456H40.2568" stroke="#323232" stroke-width="1.5" stroke-linecap="round" stroke-linejoin="round"/>
<path d="M5.74268 25.6554H9.57761" stroke="#323232" stroke-width="1.5" stroke-linecap="round" stroke-linejoin="round"/>
<path d="M5.74268 30.965H9.90632" stroke="#323232" stroke-width="1.5" stroke-linecap="round" stroke-linejoin="round"/>
<path d="M5.74268 15.0351H9.90611" stroke="#323232" stroke-width="1.5" stroke-linecap="round" stroke-linejoin="round"/>
<path d="M5.74268 20.3456H9.57761" stroke="#323232" stroke-width="1.5" stroke-linecap="round" stroke-linejoin="round"/>
<path fill-rule="evenodd" clip-rule="evenodd" d="M26.8349 30.6699H19.165C17.0496 30.6637 15.3363 28.9504 15.3301 26.835V19.1651C15.3363 17.0497 17.0496 15.3364 19.165 15.3302H26.8349C28.9503 15.3364 30.6636 17.0497 30.6698 19.1651V26.835C30.6636 28.9504 28.9503 30.6637 26.8349 30.6699Z" stroke="#323232" stroke-width="1.5" stroke-linecap="round" stroke-linejoin="round"/>
</svg>
