<svg width="56" height="56" viewBox="0 0 56 56" fill="none" xmlns="http://www.w3.org/2000/svg">
<path fill-rule="evenodd" clip-rule="evenodd" d="M18.6667 9.33325H37.3333C38.622 9.33325 39.6667 10.3779 39.6667 11.6666V25.6666C39.6667 32.1099 34.4433 37.3333 28 37.3333V37.3333C21.5567 37.3333 16.3333 32.1099 16.3333 25.6666V11.6666C16.3333 10.3779 17.378 9.33325 18.6667 9.33325Z" stroke="#323232" stroke-width="1.5" stroke-linecap="round" stroke-linejoin="round"/>
<path d="M38.9042 29.8203L43.3189 27.613C46.0856 26.2297 47.8333 23.4019 47.8333 20.3086V17.1891C47.8333 16.0615 46.9193 15.1475 45.7917 15.1475H39.6667" stroke="#323232" stroke-width="1.5" stroke-linecap="round" stroke-linejoin="round"/>
<path d="M28 46.6666V37.3333" stroke="#323232" stroke-width="1.5" stroke-linecap="round" stroke-linejoin="round"/>
<path d="M37.3333 46.6667H18.6667" stroke="#323232" stroke-width="1.5" stroke-linecap="round" stroke-linejoin="round"/>
<path d="M17.0958 29.8203L12.6811 27.613C9.91439 26.2297 8.16669 23.4019 8.16666 20.3086V17.1891C8.16666 16.0615 9.08074 15.1475 10.2083 15.1475H16.3333" stroke="#323232" stroke-width="1.5" stroke-linecap="round" stroke-linejoin="round"/>
</svg>
