<svg width="56" height="56" viewBox="0 0 56 56" fill="none" xmlns="http://www.w3.org/2000/svg">
<path d="M24.5 43.1665L17.5 43.1668" stroke="#323232" stroke-width="1.5" stroke-linecap="round" stroke-linejoin="round"/>
<path d="M32.6666 37.3334H42C44.5773 37.3334 46.6666 35.2441 46.6666 32.6667V9.33342C46.6666 6.75609 44.5773 4.66675 42 4.66675H28C25.4227 4.66675 23.3333 6.75609 23.3333 9.33342V16.3334" stroke="#323232" stroke-width="1.5" stroke-linecap="round" stroke-linejoin="round"/>
<path fill-rule="evenodd" clip-rule="evenodd" d="M30.6667 16.3333C31.7713 16.3333 32.6667 17.2287 32.6667 18.3333L32.6667 46.9999C32.6667 48.1045 31.7713 48.9999 30.6667 48.9999H11.3334C10.2288 48.9999 9.33335 48.1045 9.33335 46.9999L9.33335 18.3333C9.33335 17.2287 10.2288 16.3333 11.3334 16.3333H30.6667Z" stroke="#323232" stroke-width="1.5" stroke-linecap="round" stroke-linejoin="round"/>
</svg>
