<svg width="50" height="51" viewBox="0 0 50 51" fill="none" xmlns="http://www.w3.org/2000/svg">
<path fill-rule="evenodd" clip-rule="evenodd" d="M12.5 40.7499H8.33333C7.18333 40.7499 6.25 39.8166 6.25 38.6666V26.1666C6.25 25.0166 7.18333 24.0833 8.33333 24.0833H12.5C13.65 24.0833 14.5833 25.0166 14.5833 26.1666V38.6666C14.5833 39.8166 13.65 40.7499 12.5 40.7499Z" stroke="#323232" stroke-width="1.5" stroke-linecap="round" stroke-linejoin="round"/>
<path d="M27.0834 32.4167H31.9438C32.8459 32.4167 33.723 32.1251 34.4438 31.5834L39.4771 27.8084C40.7334 26.8667 42.4917 26.9917 43.6021 28.1021V28.1021C44.8355 29.3355 44.8355 31.3334 43.6021 32.5646L39.2834 36.8834C38.1209 38.0459 36.6375 38.8396 35.025 39.1626L28.9209 40.3834C27.7105 40.6251 26.4625 40.5959 25.2646 40.2959L19.7438 38.9167C19.0834 38.7501 18.4063 38.6667 17.725 38.6667H14.5834" stroke="#323232" stroke-width="1.5" stroke-linecap="round" stroke-linejoin="round"/>
<path d="M27.0834 32.4166H30.1771C31.9209 32.4166 33.3334 31.0041 33.3334 29.2603V28.6291C33.3334 27.1812 32.348 25.9187 30.9438 25.5687L26.1688 24.3749C25.3917 24.1812 24.5959 24.0833 23.7959 24.0833V24.0833C21.8646 24.0833 19.975 24.6541 18.3688 25.727L14.5834 28.2499" stroke="#323232" stroke-width="1.5" stroke-linecap="round" stroke-linejoin="round"/>
<path d="M35.7683 7.74004C38.0773 10.049 38.0773 13.7926 35.7683 16.1016C33.4593 18.4106 29.7158 18.4106 27.4068 16.1016C25.0978 13.7926 25.0978 10.049 27.4068 7.74004C29.7158 5.43106 33.4593 5.43106 35.7683 7.74004" stroke="#323232" stroke-width="1.5" stroke-linecap="round" stroke-linejoin="round"/>
<path d="M30.4812 6.11466C30.2875 4.93758 29.75 3.80633 28.8417 2.898C26.5333 0.589665 22.7896 0.589665 20.4812 2.898C18.1729 5.20633 18.1729 8.95008 20.4812 11.2584C21.9187 12.6959 23.9104 13.2355 25.7667 12.8834" stroke="#323232" stroke-width="1.5" stroke-linecap="round" stroke-linejoin="round"/>
</svg>
