<svg width="56" height="56" viewBox="0 0 56 56" fill="none" xmlns="http://www.w3.org/2000/svg">
<path d="M14.294 32.2L7 39.6666L12.8333 43.1666L16.3333 49L25.431 39.445" stroke="#323232" stroke-width="1.5" stroke-linecap="round" stroke-linejoin="round"/>
<path d="M30.569 39.445L39.6666 49L43.1666 43.1666L49 39.6666L41.706 32.2" stroke="#323232" stroke-width="1.5" stroke-linecap="round" stroke-linejoin="round"/>
<path d="M39.5493 11.7839C45.9279 18.1625 45.9279 28.5042 39.5493 34.8827C33.1707 41.2613 22.8291 41.2613 16.4505 34.8827C10.0719 28.5042 10.0719 18.1625 16.4505 11.7839C22.8291 5.40536 33.1707 5.40536 39.5493 11.7839" stroke="#323232" stroke-width="1.5" stroke-linecap="round" stroke-linejoin="round"/>
<path fill-rule="evenodd" clip-rule="evenodd" d="M27.9977 29.3627L32.1907 31.5654C33.0073 31.9947 33.9617 31.3017 33.8053 30.3917L33.005 25.7227L36.3977 22.4187C37.058 21.7747 36.694 20.6524 35.7817 20.5194L31.094 19.838L28.9987 15.589C28.5903 14.7607 27.412 14.7607 27.0037 15.589L24.9083 19.838L20.2183 20.5217C19.306 20.6547 18.942 21.777 19.6023 22.421L22.995 25.725L22.1947 30.394C22.0383 31.304 22.9927 31.997 23.8093 31.5677L28.0023 29.365H27.9977V29.3627Z" stroke="#323232" stroke-width="1.5" stroke-linecap="round" stroke-linejoin="round"/>
</svg>
