<svg width="58" height="58" viewBox="0 0 58 58" fill="none" xmlns="http://www.w3.org/2000/svg">
<path d="M19.3334 50.75H16.9167C14.2473 50.75 12.0834 48.586 12.0834 45.9167V12.0833C12.0834 9.41396 14.2473 7.25 16.9167 7.25H36.25C38.9194 7.25 41.0834 9.41396 41.0834 12.0833V16.9167" stroke="#323232" stroke-width="1.5" stroke-linecap="round" stroke-linejoin="round"/>
<path fill-rule="evenodd" clip-rule="evenodd" d="M31.4167 38.6662L30.0018 37.2512C29.3608 36.6102 28.4914 36.2501 27.5849 36.2501C26.6783 36.2501 25.8089 36.6102 25.1679 37.2512V37.2512C24.0159 38.4033 23.8371 40.2082 24.7407 41.5639L29.4292 48.5975C30.3256 49.9423 31.8348 50.7501 33.451 50.7501H42.6249C45.0625 50.7501 47.1186 48.9349 47.4209 46.5161L48.2957 39.5154C48.6179 36.9363 46.8428 34.5642 44.2776 34.1459L38.6667 33.2309V27.7917C38.6667 25.7897 37.0437 24.1667 35.0417 24.1667V24.1667C33.0396 24.1667 31.4167 25.7897 31.4167 27.7917V38.6662Z" stroke="#323232" stroke-width="1.5" stroke-linecap="round" stroke-linejoin="round"/>
<path d="M32.625 7.25V12.0833C32.625 12.7507 32.084 13.2917 31.4166 13.2917H21.75C21.0826 13.2917 20.5416 12.7507 20.5416 12.0833V7.25" stroke="#323232" stroke-width="1.5" stroke-linecap="round" stroke-linejoin="round"/>
</svg>
