<svg width="54" height="54" viewBox="0 0 54 54" fill="none" xmlns="http://www.w3.org/2000/svg">
<path d="M20.25 47.25H15.75C13.2647 47.25 11.25 45.2353 11.25 42.75V11.25C11.25 8.76472 13.2647 6.75 15.75 6.75H33.75C36.2353 6.75 38.25 8.76472 38.25 11.25V22.5" stroke="#323232" stroke-width="1.5" stroke-linecap="round" stroke-linejoin="round"/>
<path d="M30.375 6.75V11.25C30.375 11.8713 29.8713 12.375 29.25 12.375H20.25C19.6287 12.375 19.125 11.8713 19.125 11.25V6.75" stroke="#323232" stroke-width="1.5" stroke-linecap="round" stroke-linejoin="round"/>
<rect x="29.25" y="38.25" width="13.5" height="9" rx="1.25" stroke="#323232" stroke-width="1.5" stroke-linecap="round" stroke-linejoin="round"/>
<path d="M32.0625 38.25V35.4375C32.0625 33.2629 33.8254 31.5 36 31.5V31.5C38.1746 31.5 39.9375 33.2629 39.9375 35.4375V38.25" stroke="#323232" stroke-width="1.5" stroke-linecap="round" stroke-linejoin="round"/>
</svg>
