<svg width="56" height="56" viewBox="0 0 43 43" fill="none" xmlns="http://www.w3.org/2000/svg">
<path d="M7.56087 19.5112V37.4279" stroke="#323232" stroke-width="1.5" stroke-linecap="round" stroke-linejoin="round"/>
<path d="M35.4393 19.5112V37.4279" stroke="#323232" stroke-width="1.5" stroke-linecap="round" stroke-linejoin="round"/>
<path d="M25.4812 37.4262V29.464C25.4812 27.2656 23.6985 25.4829 21.5001 25.4829C19.3018 25.4829 17.519 27.2656 17.519 29.464V37.4262" stroke="#323232" stroke-width="1.5" stroke-linecap="round" stroke-linejoin="round"/>
<path d="M3.5835 37.4278H39.4168" stroke="#323232" stroke-width="1.5" stroke-linecap="round" stroke-linejoin="round"/>
<path fill-rule="evenodd" clip-rule="evenodd" d="M7.70587 19.5096C4.66362 19.4881 2.68024 16.4763 3.99891 13.8801L7.07162 7.82968C7.77216 6.4501 9.24491 5.57397 10.861 5.57397H32.1388C33.7549 5.57397 35.2277 6.4501 35.9282 7.82968L39.0027 13.8801C40.3214 16.4763 38.338 19.4881 35.2957 19.5096C32.7569 19.5096 30.6983 17.7752 30.6983 15.6342V15.5482C30.6983 17.7358 28.6397 19.5096 26.1009 19.5096C23.5621 19.5096 21.5035 17.7358 21.5035 15.5482C21.5035 17.7358 19.4449 19.5096 16.9061 19.5096C14.3673 19.5096 12.3087 17.7358 12.3087 15.5482V15.6342C12.3033 17.7752 10.2447 19.5096 7.70587 19.5096Z" stroke="#323232" stroke-width="1.5" stroke-linecap="round" stroke-linejoin="round"/>
</svg>
