<svg width="56" height="56" viewBox="0 0 56 56" fill="none" xmlns="http://www.w3.org/2000/svg">
<path d="M23.3333 35H16.3333C11.1787 35 7 39.1787 7 44.3333V46.6667" stroke="#323232" stroke-width="1.5" stroke-linecap="round" stroke-linejoin="round"/>
<path d="M46.6667 48.9999H32.6667" stroke="#323232" stroke-width="1.5" stroke-linecap="round" stroke-linejoin="round"/>
<path fill-rule="evenodd" clip-rule="evenodd" d="M33.3501 35.7803L40.447 28.6834C40.8845 28.2458 41.478 28 42.0969 28C42.7157 28 43.3092 28.2458 43.7468 28.6834L45.9833 30.9199C46.8945 31.8312 46.8945 33.3085 45.9833 34.2198L38.8864 41.3166C38.4488 41.7542 37.8553 42 37.2364 42H33.8333C33.189 42 32.6667 41.4777 32.6667 40.8333V37.4302C32.6667 36.8114 32.9125 36.2179 33.3501 35.7803Z" stroke="#323232" stroke-width="1.5" stroke-linecap="round" stroke-linejoin="round"/>
<circle cx="25.6667" cy="16.3333" r="9.33333" stroke="#323232" stroke-width="1.5" stroke-linecap="round" stroke-linejoin="round"/>
</svg>
